<?xml version="1.0" encoding="UTF-8" standalone="no"?>
<!DOCTYPE svg PUBLIC "-//W3C//DTD SVG 20010904//EN" "http://www.w3.org/TR/2001/REC-SVG-20010904/DTD/svg10.dtd">
<svg version="1.0" xmlns="http://www.w3.org/2000/svg" width="1280.000000pt" height="1105.000000pt" viewBox="0 0 1280.000000 1105.000000" preserveAspectRatio="xMidYMid meet">
<g transform="translate(0.000000,1105.000000) scale(0.100000,-0.100000)" fill="#000000" stroke="none">
<path d="M4150 10920 c-63 -60 -121 -110 -128 -110 -7 0 -73 38 -147 85 -74 47 -139 85 -144 85 -4 0 -55 -56 -112 -125 -57 -68 -112 -125 -121 -125 -9 0 -79 29 -156 65 -78 36 -145 65 -149 65 -5 0 -47 -58 -93 -130 -45 -71 -89 -135 -97 -142 -11 -9 -47 -1 -162 35 -82 26 -155 47 -163 47 -9 0 -42 -56 -87 -150 -60 -127 -75 -150 -94 -150 -12 0 -80 11 -152 25 -71 14 -139 25 -151 25 -19 0 -28 -18 -75 -157 l-54 -158 -175 0 -175 0 -33 -159 c-18 -88 -37 -163 -43 -167 -6 -3 -54 -9 -107 -13 -54 -3 -127 -9 -163 -12 l-67 -6 -6 -77 c-3 -42 -9 -115 -12 -163 -4 -47 -10 -91 -14 -97 -3 -6 -80 -26 -169 -44 l-163 -32 4 -175 3 -175 -150 -52 c-82 -28 -154 -53 -160 -55 -5 -3 2 -69 19 -165 16 -88 27 -166 25 -172 -2 -6 -69 -43 -149 -81 -80 -39 -146 -76 -148 -84 -2 -8 18 -81 44 -162 32 -102 44 -152 37 -162 -5 -9 -67 -53 -138 -98 -72 -46 -131 -87 -133 -92 -1 -5 27 -73 63 -151 36 -78 65 -149 64 -159 0 -9 -57 -64 -125 -120 -92 -77 -124 -108 -119 -120 3 -9 42 -73 85 -143 44 -69 80 -132 80 -139 0 -7 -49 -65 -110 -130 -60 -65 -110 -122 -110 -128 0 -6 45 -65 100 -132 55 -68 100 -129 100 -138 0 -8 -43 -75 -95 -148 l-96 -134 121 -116 c66 -64 120 -123 120 -131 0 -8 -34 -77 -75 -153 -41 -76 -75 -141 -75 -144 0 -4 61 -51 135 -106 74 -55 135 -105 135 -110 0 -5 -27 -78 -59 -162 -33 -84 -57 -156 -53 -159 4 -4 65 -39 137 -79 72 -40 136 -78 144 -85 12 -12 8 -36 -23 -162 -20 -81 -39 -155 -41 -164 -4 -12 31 -30 151 -79 86 -35 158 -69 161 -76 2 -6 -4 -83 -15 -170 -11 -88 -17 -162 -13 -165 3 -4 71 -23 151 -44 80 -20 153 -41 163 -46 15 -9 17 -28 17 -178 l0 -169 32 -6 c18 -3 92 -13 163 -22 72 -9 135 -21 142 -27 7 -7 22 -85 34 -174 l22 -163 167 0 c122 0 170 -3 177 -12 6 -7 29 -82 51 -167 22 -84 43 -155 45 -157 2 -2 77 5 167 16 133 17 166 18 175 8 7 -7 38 -77 70 -156 32 -78 62 -145 66 -148 4 -2 79 13 166 35 111 28 161 37 170 30 7 -6 47 -73 88 -150 42 -76 78 -139 80 -139 2 0 74 27 160 60 86 33 160 58 165 55 6 -3 53 -64 106 -136 53 -71 100 -129 105 -129 5 0 72 34 148 75 76 41 143 75 149 75 6 0 64 -54 129 -121 l118 -120 134 95 c74 53 140 96 147 96 7 0 66 -43 131 -97 65 -53 123 -100 129 -105 7 -5 55 33 135 107 68 63 128 115 133 115 4 0 69 -38 144 -85 75 -47 141 -85 147 -85 6 0 57 56 115 125 57 69 110 125 117 125 7 0 76 -29 153 -65 77 -36 146 -65 153 -65 6 0 52 63 101 140 49 77 93 140 98 140 9 0 280 -84 314 -97 7 -2 44 61 87 151 42 86 82 156 89 156 7 0 83 -13 168 -29 85 -16 158 -26 161 -23 4 4 27 68 52 143 l45 136 -243 243 -243 243 -109 -61 c-433 -244 -867 -382 -1388 -444 -158 -18 -585 -15 -755 6 -803 98 -1502 430 -2073 985 -603 586 -980 1372 -1057 2206 -22 236 -13 577 21 830 108 807 531 1592 1154 2144 702 621 1584 933 2520 890 1132 -51 2163 -638 2792 -1589 308 -465 490 -970 565 -1560 17 -141 17 -629 0 -775 -62 -503 -218 -976 -461 -1390 l-40 -70 243 -243 243 -244 134 43 c74 23 138 46 142 50 5 3 -5 80 -22 170 -17 90 -27 167 -23 171 4 4 73 39 152 78 80 39 146 74 147 78 2 4 -19 77 -46 162 -27 85 -47 159 -45 165 3 5 68 50 144 99 77 48 140 89 140 91 0 2 -31 71 -70 155 -41 90 -67 157 -62 165 4 7 62 59 130 115 67 56 122 103 122 105 0 2 -38 65 -85 139 -47 75 -85 143 -85 152 0 9 44 64 98 121 53 57 103 113 110 123 13 17 4 32 -92 149 -58 71 -106 133 -106 137 0 4 43 67 95 140 52 73 95 136 95 141 0 4 -55 61 -122 125 l-123 117 16 28 c9 16 46 85 82 154 l67 126 -135 98 c-83 61 -135 106 -135 116 0 10 25 82 55 160 31 78 54 147 52 153 -3 6 -68 46 -146 89 -107 60 -141 83 -141 98 0 11 16 83 35 159 19 76 35 145 35 153 0 10 -55 37 -155 77 -181 73 -165 43 -138 263 10 83 13 141 7 146 -5 4 -65 22 -134 40 -69 18 -139 36 -156 42 l-31 10 -6 170 c-3 94 -7 172 -9 174 -2 2 -75 13 -163 25 -88 12 -164 26 -169 30 -4 5 -18 82 -30 172 l-22 163 -174 5 -175 5 -43 160 c-24 88 -46 163 -50 166 -4 4 -78 -2 -165 -13 -87 -11 -164 -18 -170 -15 -7 3 -39 72 -71 153 -32 82 -62 152 -65 156 -3 4 -78 -11 -165 -33 -87 -22 -164 -38 -171 -35 -7 2 -47 68 -90 145 -42 78 -80 143 -83 145 -4 2 -74 -23 -157 -55 -82 -32 -155 -58 -161 -59 -7 0 -56 61 -110 135 -55 74 -102 135 -107 135 -4 0 -70 -34 -146 -75 -76 -41 -145 -75 -154 -75 -8 0 -66 54 -129 121 l-114 120 -134 -95 c-74 -53 -142 -96 -150 -96 -8 0 -70 45 -138 100 -67 55 -128 100 -134 100 -7 -1 -65 -50 -128 -110z"/>
<path d="M2505 9328 c-265 -186 -599 -519 -784 -784 l-43 -61 173 -174 c727 -728 1093 -1363 1029 -1784 -61 -406 -401 -925 -1019 -1557 l-183 -188 100 -132 c175 -232 382 -443 602 -615 94 -73 178 -133 187 -133 4 0 93 85 197 188 263 259 447 419 671 584 300 221 615 378 836 418 375 68 853 -159 1488 -707 75 -64 687 -667 1361 -1340 l1226 -1223 889 0 890 0 -1671 1673 c-919 919 -1713 1719 -1763 1777 -406 458 -658 876 -726 1204 -64 314 78 690 449 1186 151 202 316 389 568 646 92 93 168 175 168 181 0 16 -138 198 -237 313 -159 185 -373 379 -576 524 l-68 48 -202 -198 c-614 -603 -1142 -945 -1552 -1005 -413 -60 -1049 310 -1772 1030 -95 94 -173 171 -175 171 -2 0 -30 -19 -63 -42z m2095 -1823 c317 -63 577 -306 677 -632 24 -79 26 -104 26 -238 0 -135 -2 -159 -27 -239 -77 -253 -233 -442 -461 -556 -139 -70 -229 -92 -385 -94 -245 -2 -447 75 -618 238 -165 157 -259 347 -281 568 -15 160 13 316 84 463 181 376 576 572 985 490z"/>
<path d="M4328 7340 c-353 -42 -618 -343 -619 -700 0 -110 10 -171 45 -262 75 -202 250 -363 461 -427 96 -29 276 -35 364 -12 143 36 253 100 351 201 79 81 132 168 167 275 24 71 27 95 27 220 0 128 -2 147 -28 220 -33 95 -69 161 -129 234 -153 184 -396 280 -639 251z"/>
<path d="M7586 1604 c-174 -42 -325 -191 -372 -368 -20 -73 -20 -769 0 -842 35 -131 143 -267 259 -324 34 -16 95 -39 134 -50 72 -20 105 -20 2383 -20 2297 0 2311 0 2387 20 118 32 180 67 258 145 78 78 113 140 145 258 18 70 20 106 20 392 0 345 -7 399 -67 525 -35 72 -151 188 -223 223 -127 61 46 57 -2520 56 -1989 -1 -2354 -3 -2404 -15z m2554 -116 c73 -13 222 -85 291 -141 153 -123 249 -327 249 -532 0 -473 -467 -805 -913 -650 -100 34 -171 80 -258 165 -85 84 -138 170 -177 288 -35 109 -37 274 -3 382 38 124 87 206 176 296 174 176 383 240 635 192z m-1354 -433 c92 -45 145 -133 145 -241 0 -234 -277 -358 -448 -201 -128 118 -124 297 9 416 72 63 195 74 294 26z m2655 5 c98 -49 152 -134 153 -240 1 -111 -50 -196 -149 -248 -107 -56 -247 -26 -329 70 -93 108 -85 260 18 364 86 85 203 106 307 54z m-3454 -71 c62 -23 123 -109 123 -174 0 -43 -32 -106 -68 -137 -153 -128 -366 36 -283 218 37 82 143 125 228 93z m4152 -9 c61 -31 111 -105 111 -165 0 -31 -25 -90 -51 -120 -111 -126 -319 -48 -319 120 0 48 25 108 57 137 53 48 140 60 202 28z"/>
<path d="M9929 1140 c-100 -17 -192 -90 -237 -189 -37 -79 -38 -192 -1 -271 119 -255 467 -259 601 -8 20 37 23 58 23 143 0 89 -3 105 -27 150 -68 129 -215 200 -359 175z"/>
</g>
</svg>